<mxfile host="app.diagrams.net" modified="2021-08-23T19:55:41.208Z" agent="5.0 (Windows)" etag="00ZTF6XPFZ76In3KcM1e" version="14.9.2" type="github">
  <diagram id="cQnIbtuH6GqwWI9tAGfN" name="Page-1">
    <mxGraphModel dx="981" dy="538" grid="1" gridSize="10" guides="1" tooltips="1" connect="1" arrows="1" fold="1" page="1" pageScale="1" pageWidth="827" pageHeight="1169" math="0" shadow="0">
      <root>
        <mxCell id="0" />
        <mxCell id="1" parent="0" />
        <mxCell id="vjo05r3FHmtKJxtx1X4f-1" value="&lt;font color=&quot;#A9C4EB&quot;&gt;1. Bean definition&lt;/font&gt;" style="text;html=1;align=center;verticalAlign=middle;resizable=0;points=[];autosize=1;strokeColor=none;" vertex="1" parent="1">
          <mxGeometry x="360" y="147.5" width="120" height="20" as="geometry" />
        </mxCell>
        <mxCell id="vjo05r3FHmtKJxtx1X4f-2" value="&lt;font color=&quot;#7EA6E0&quot;&gt;2. Bean Creation and Instantiation&lt;/font&gt;" style="text;html=1;align=center;verticalAlign=middle;resizable=0;points=[];autosize=1;strokeColor=none;" vertex="1" parent="1">
          <mxGeometry x="404" y="194" width="210" height="20" as="geometry" />
        </mxCell>
        <mxCell id="vjo05r3FHmtKJxtx1X4f-4" value="&lt;p&gt;&lt;font style=&quot;font-size: 8px&quot; color=&quot;#999999&quot;&gt;Loading into ApplicationContext and JVM&lt;/font&gt;&lt;/p&gt;" style="text;html=1;align=center;verticalAlign=middle;resizable=0;points=[];autosize=1;strokeColor=none;" vertex="1" parent="1">
          <mxGeometry x="424" y="194" width="170" height="50" as="geometry" />
        </mxCell>
        <mxCell id="vjo05r3FHmtKJxtx1X4f-5" value="&lt;font color=&quot;#B266FF&quot;&gt;3. Populating Bean properties&lt;/font&gt;" style="text;html=1;align=center;verticalAlign=middle;resizable=0;points=[];autosize=1;strokeColor=none;" vertex="1" parent="1">
          <mxGeometry x="400" y="250" width="190" height="20" as="geometry" />
        </mxCell>
        <mxCell id="vjo05r3FHmtKJxtx1X4f-6" value="&lt;p style=&quot;font-size: 8px ; line-height: 50%&quot;&gt;&lt;font style=&quot;font-size: 8px&quot; color=&quot;#999999&quot;&gt;Creating beans id, scope, default values&lt;/font&gt;&lt;/p&gt;&lt;p style=&quot;font-size: 8px&quot;&gt;&lt;font style=&quot;font-size: 8px&quot; color=&quot;#999999&quot;&gt;Metadata&lt;br&gt;&lt;/font&gt;&lt;/p&gt;" style="text;html=1;align=center;verticalAlign=middle;resizable=0;points=[];autosize=1;strokeColor=none;" vertex="1" parent="1">
          <mxGeometry x="410" y="260" width="170" height="50" as="geometry" />
        </mxCell>
        <mxCell id="vjo05r3FHmtKJxtx1X4f-9" value="&lt;font color=&quot;#CCCC00&quot;&gt;4. Post-initialization&lt;/font&gt;" style="text;html=1;align=center;verticalAlign=middle;resizable=0;points=[];autosize=1;strokeColor=none;" vertex="1" parent="1">
          <mxGeometry x="290" y="290" width="130" height="20" as="geometry" />
        </mxCell>
        <mxCell id="vjo05r3FHmtKJxtx1X4f-10" value="&lt;p style=&quot;font-size: 8px ; line-height: 30%&quot;&gt;&lt;font color=&quot;#999999&quot;&gt;Execution custom application-specific logic&lt;/font&gt;&lt;/p&gt;&lt;p style=&quot;font-size: 8px&quot;&gt;&lt;font color=&quot;#999999&quot;&gt;through Aware interfaces&lt;/font&gt;&lt;br&gt;&lt;/p&gt;" style="text;html=1;align=center;verticalAlign=middle;resizable=0;points=[];autosize=1;strokeColor=none;" vertex="1" parent="1">
          <mxGeometry x="265" y="300" width="180" height="50" as="geometry" />
        </mxCell>
        <mxCell id="vjo05r3FHmtKJxtx1X4f-11" value="&lt;font color=&quot;#4D9900&quot;&gt;5. Ready to Serve&lt;/font&gt;" style="text;html=1;align=center;verticalAlign=middle;resizable=0;points=[];autosize=1;strokeColor=none;" vertex="1" parent="1">
          <mxGeometry x="190" y="250" width="120" height="20" as="geometry" />
        </mxCell>
        <mxCell id="vjo05r3FHmtKJxtx1X4f-12" value="&lt;font style=&quot;font-size: 8px&quot; color=&quot;#999999&quot;&gt;Ready to use&lt;/font&gt;" style="text;html=1;align=center;verticalAlign=middle;resizable=0;points=[];autosize=1;strokeColor=none;" vertex="1" parent="1">
          <mxGeometry x="215" y="265" width="70" height="20" as="geometry" />
        </mxCell>
        <mxCell id="vjo05r3FHmtKJxtx1X4f-13" value="&lt;font color=&quot;#CCCC00&quot;&gt;6. Pre-destroy&lt;/font&gt;" style="text;html=1;align=center;verticalAlign=middle;resizable=0;points=[];autosize=1;strokeColor=none;" vertex="1" parent="1">
          <mxGeometry x="200" y="190" width="100" height="20" as="geometry" />
        </mxCell>
        <mxCell id="vjo05r3FHmtKJxtx1X4f-14" value="&lt;div style=&quot;font-size: 8px&quot;&gt;&lt;font style=&quot;font-size: 8px&quot; color=&quot;#999999&quot;&gt;Execute clean-ups, callback methods and&lt;/font&gt;&lt;/div&gt;&lt;div style=&quot;font-size: 8px&quot;&gt;&lt;font style=&quot;font-size: 8px&quot; color=&quot;#999999&quot;&gt;application-specific logic before destroying&lt;/font&gt;&lt;br&gt;&lt;/div&gt;" style="text;html=1;align=center;verticalAlign=middle;resizable=0;points=[];autosize=1;strokeColor=none;" vertex="1" parent="1">
          <mxGeometry x="160" y="210" width="180" height="30" as="geometry" />
        </mxCell>
        <mxCell id="vjo05r3FHmtKJxtx1X4f-16" value="&lt;font style=&quot;font-size: 8px&quot; color=&quot;#999999&quot;&gt;Define bean using stereotype annotations or XML&lt;/font&gt;" style="text;html=1;align=center;verticalAlign=middle;resizable=0;points=[];autosize=1;strokeColor=none;" vertex="1" parent="1">
          <mxGeometry x="370" y="162.5" width="200" height="20" as="geometry" />
        </mxCell>
        <mxCell id="vjo05r3FHmtKJxtx1X4f-17" value="&lt;font color=&quot;#FF6666&quot;&gt;7. Bean destroyed&lt;/font&gt;" style="text;html=1;align=center;verticalAlign=middle;resizable=0;points=[];autosize=1;strokeColor=none;" vertex="1" parent="1">
          <mxGeometry x="230" y="147.5" width="120" height="20" as="geometry" />
        </mxCell>
        <mxCell id="vjo05r3FHmtKJxtx1X4f-18" value="&lt;font style=&quot;font-size: 8px&quot; color=&quot;#999999&quot;&gt;Bean removed from JVM&lt;/font&gt;" style="text;html=1;align=center;verticalAlign=middle;resizable=0;points=[];autosize=1;strokeColor=none;" vertex="1" parent="1">
          <mxGeometry x="230" y="162.5" width="110" height="20" as="geometry" />
        </mxCell>
        <mxCell id="vjo05r3FHmtKJxtx1X4f-19" value="" style="shape=flexArrow;endArrow=classic;html=1;fillColor=#d5e8d4;strokeColor=#82b366;" edge="1" parent="1">
          <mxGeometry width="50" height="50" relative="1" as="geometry">
            <mxPoint x="570" y="160" as="sourcePoint" />
            <mxPoint x="210" y="160" as="targetPoint" />
            <Array as="points">
              <mxPoint x="640" y="200" />
              <mxPoint x="640" y="270" />
              <mxPoint x="500" y="330" />
              <mxPoint x="360" y="400" />
              <mxPoint x="160" y="280" />
              <mxPoint x="140" y="200" />
            </Array>
          </mxGeometry>
        </mxCell>
        <mxCell id="vjo05r3FHmtKJxtx1X4f-20" value="&lt;font style=&quot;font-size: 24px&quot; color=&quot;#4D9900&quot;&gt;Bean lifecycle&lt;br&gt;&lt;/font&gt;" style="text;html=1;align=center;verticalAlign=middle;resizable=0;points=[];autosize=1;strokeColor=none;" vertex="1" parent="1">
          <mxGeometry x="285" y="100" width="180" height="20" as="geometry" />
        </mxCell>
      </root>
    </mxGraphModel>
  </diagram>
</mxfile>
